<svg xmlns="http://www.w3.org/2000/svg" id="social-icons" version="1.1" viewBox="0 0 192 288" width="192px" height="288px" ><defs><radialGradient id="radial-gradient" cx="-1700.4" cy="-2472.8" r="55.7" fx="-1700.4" fy="-2472.8" gradientTransform="matrix(.68327 -.73016 -.65715 -.61495 -465.3 -2674.6)" gradientUnits="userSpaceOnUse"><stop offset="0" stop-color="#ffd042"/><stop offset=".5" stop-color="#ec1f80"/><stop offset="1" stop-color="#2985ba"/></radialGradient><style>.st3{fill:#231f20}.st9{fill:#fff}.st19{fill:#4e47e1}</style></defs><g id="twitter"><path d="M96 46.6 49.4 48 48 1.4 96 0v46.6Z" style="fill:#2aa9e0"/><path d="m79.6 10.2-7.2 2.7-.7 6.4-13.9-7.6 3.6 8.9h-4.1c0-.1 6 5.7 6 5.7l-3.7.8 6.1 4.5-4.4 2.1-5.7.2 11.6 3.9 15.3-7.4 2.2-12.3 3.7-3.7-5.2 1.4 4.7-4.4-5.2 1.1-3.1-2.3Z" class="st9"/></g><g id="linkedin"><path d="M192 46.6 145.4 48 144 1.4 192 0v46.6Z" style="fill:#1b75bb"/><path d="M159.7 11.4c0 2.4-2 4.4-4.4 4.4s-4.4-2-4.4-4.4 2-4.4 4.4-4.4c2.4 0 4.4 1.9 4.4 4.4Zm-7.9 6.8v24l7.8.3 1-24.6-8.8.3Zm35.4-.1-8.4.3v15.5L166.2 19l-1 23.4H186l1.2-24.3Z" class="st9"/></g><g id="vimeo"><path d="M96 94.6 49.4 96 48 49.4 96 48v46.6Z" style="fill:#0098cc"/><path d="M62.1 57.4 54 66.1l7-.9 6.8 22.9h6.7l16.6-28.3-15.5-2.9-2.8 7.1 7.7.4-9 11.6-3.2-18.6h-6.2Z" class="st9"/></g><g id="youtube"><path d="M48 94.6 1.4 96 0 49.4 48 48v46.6Z" style="fill:#e3e4e5"/><path d="M48 94.6 1.4 96 .7 73.1H48v21.5Z" style="fill:#be2427"/><path d="M15.1 55.8H3.6L8 61.5v7.7l3.1.2.2-7.9 3.8-5.7Zm16.6.3c0 .2-4.2 14 5.3 14.1s5.9-13.8 5.9-13.8l-11.2-.3Zm-2.1 6.3c0 4-3.2 7.2-7.2 7.2s-7.2-3.2-7.2-7.2 3.2-7.2 7.2-7.2 7.2 3.2 7.2 7.2Z" class="st3"/><path d="M14.7 76.7c0 .2-4.2 14.2 5.4 14.3 9.6 0 6-14 6-14l-11.4-.3Zm-1.4-.5H2.1l-.2 3 3.6.2.2 10.9h3.2l.3-10.7 3.7.2.4-3.6ZM37.6 78v13h9.2l-.2-4H43v-4.5h-2.1v-5l-3.2.5Zm-4.9 5.1c1.6-.4 3-1.3 3-3.1 0-4.2-7.4-4.2-7.4-4.2l.7 15s7.6.9 7.6-3.7-1.9-3.4-3.9-4Z" class="st9"/></g><g id="behance"><path d="M192 94.6 145.4 96 144 49.4l48-1.4v46.6Z" style="fill:#00a0e3"/><path d="M185 55.9h-15.2l2.8 4.9h10l2.4-4.9Zm-15.4 10.6v20.3c.1 0 19.6.4 19.6.4l-.5-6.4-7.6-.2-.2-6.9-4.5.2V66c-.1 0-6.8.5-6.8.5Zm-9.2 6.2c1.6-1.1 2.7-2.8 2.7-5.2 0-8.7-14.4-8.8-14.4-8.8l1.2 29.2s16.1 1.8 16-7.8c0-3.7-2.5-5.9-5.5-7.4Z" class="st9"/></g><g id="instagram"><radialGradient id="SVGID_1_" cx="-1121.543" cy="2150.182" r="55.657" fx="-1124.295" fy="2149.838" gradientTransform="matrix(.6836 -.7299 .6799 .6368 -641.64 -2046.602)" gradientUnits="userSpaceOnUse"><stop offset=".036" style="stop-color:#ffd042"/><stop offset=".519" style="stop-color:#ec1f80"/><stop offset="1" style="stop-color:#2985ba"/></radialGradient><path d="M96 142.6 49.4 144 48 97.4 96 96z" style="fill:url(#SVGID_1_)"/><path d="m88.8 102.7-34.9.3-.7 34.4 36.5 2-.9-36.7zm-32.1 32.4.5-29.9 28.7.1.3 31.1-29.5-1.3z" style="fill:#fff"/><path d="m80.8 108.5-2 1.8 1.9 3.4 2.9-2zm-6.3 3.7-4.9-.3-7.2 4.3-.5 7.9 6.7 6.5 6-.3 5.3-5.1.2-7.1-5.6-5.9zm-2.1 15.1-6.2-1.8-1-5.5 4.3-5.5 5.9 1.9 1.7 6.8-4.7 4.1z" style="fill:#fff"/></g><g id="facebook"><path d="M48 142.6 1.4 144 0 97.4 48 96v46.6Z" style="fill:#2f5191"/><path d="M41.3 117.5h-9.4v-9.2c-.1 0 7 1.4 7 1.4v-8H30l-7.2 10.5.3 5.3h-7.3l-.3 7.8 7.9.3.8 17.7 8.1-.2L32 126l9.6.3-.3-8.8Z" class="st9"/></g><g id="flickr"><path d="M144 46.6 97.4 48 96 1.4 144 0v46.6Z" class="st9"/><path d="M118.9 25.3c0 5-4.1 9-9 9s-9-4.1-9-9 4-9 9-9c5-.1 9 4 9 9Z" style="fill:#3664ae"/><path d="M139.6 24.6c0 5-4.1 9.1-9.1 9.1s-9.1-4.1-9.1-9.1 4.1-9.1 9.1-9.1 9.1 4.1 9.1 9.1Z" style="fill:#ec1f80"/></g><g id="github"><path d="m192 144-48 1.4 1.4 46.6 46.6-1.4V144Z" class="st3"/><path d="m163.4 191.5.2-5.7h-6.8c0-.1-2.7-5.6-2.7-5.6l-4.7-2.2h5.4c0-.1 4.1 5.4 4.7 5.3.6-.1 4.3-.9 4.3-.9l2.6-3.2-10.3-4.1-2.8-9.9 3.5-4.5-.6-3 .8-4.4 6.7 3.5 6.1-.8 6.1.8 6.7-3.5 1.2 4.4-1 3 4 4.5-2.7 9.9-10.9 4.1 2.8 3 .7 8.9-13.3.4Z" class="st9"/></g><g id="snapchat"><path d="m48 144-48 1.4L1.4 192l46.6-1.4V144Z" style="fill:#fffc00"/><path d="m17.2 181.1-6 1.2-.2-3.1-4.5-2.2 5-3.4 2.1-4.2-6.4-3.6 4-1.6 2.9.4v-7.5c-.1 0 5.9-6 5.9-6l8 1.1 5.4 4.9.2 7.4 2-.4 4.2 1.6-6 3.7 1.6 3.7 6.3 4.8-4.5 1.3-.9 2.7-4.3-.6-9.2 3.7-5.6-3.9Z" class="st9"/><path d="m20.3 151.9 7.4 1 4.9 4.6.2 8 2.7-.5 2.5 1-5.2 3.2 1.9 4.5 5.3 4-3.4 1-.9 2.5-3.9-.5-9 3.6-5.5-3.9-5.4 1.1-.2-2.7-3.7-1.9 4.2-2.8 2.5-5-5.7-3.2 2.4-1 3.6.5v-8c-.1 0 5.3-5.5 5.3-5.5m-.5-1.6-.5.5-5.5 5.6-.4.4v6.8c.1 0-1.7-.3-1.7-.3h-.4c0-.1-.4 0-.4 0l-2.4 1-3 1.3 2.7 1.5 4.4 2.5-1.7 3.4-3.8 2.6-2.1 1.5 2.4 1.1 3 1.4v1.8c.1 0 .2 1.7.2 1.7l1.6-.3 4.8-.9 5 3.5.7.5.8-.3 8.6-3.5 3.6.5 1.2.2.4-1.2.6-1.7 2.6-.8 2.8-.8-2.4-1.8-5-3.8-1.3-2.9 4.1-2.5 2.6-1.6-2.9-1.1-2.5-1-.4-.2h-.4c0 .1-1 .3-1 .3l-.2-6.2v-.6l-.5-.4-4.9-4.6-.3-.3h-.5c0-.1-7.4-1.1-7.4-1.1l-.5-.2Z" class="st3"/></g><g id="last-fm"><path d="M144 94.6 97.4 96 96 49.4l48-1.4v46.6Z" style="fill:#dc1a23"/><path d="m121.2 79.3-1.8-3.7-6.9 4.6-5.1-4.1-1.3-8.4 7.3-2.7 16.5 17.2 6.1-.8 3.3-9.3-10.6-4.3 2-4.7 4.6 2.4 2-1.4-4.3-4-5 .2-2.6 8.8 9.9 5.4-1.4 3.7-2.7.6L114 60.4l-12.1 5.7 1.5 11.8 9.1 7.2 8.7-5.8Z" class="st9"/></g><g id="pinterest"><path d="m192 142.6-46.6 1.4-1.4-46.6 48-1.4v46.6Z" style="fill:#cc2127"/><path d="m158.6 143.6 4.7-28 5.1-3.2 2.7 3.9-2.7 10 10.7-.7 2.3-9.5-6.3-8.5-13.9 2.7-3.4 6.9 2.3 7.6-3.1 4.3-4.7-10.9 4.9-11.5 20-4.3 10.5 14.5-4.5 14.6-16.6-.4-1.8 12.3-6.2.2Z" class="st9"/></g><g id="dribble"><path d="M96 190.6 49.4 192 48 145.4l48-1.4v46.6Z" style="fill:#ef578d"/><path d="M72.6 149.3c-10.7 0-19.4 8.7-19.4 19.4s8.7 19.4 19.4 19.4S92 179.4 92 168.7s-8.7-19.4-19.4-19.4Zm14.7 18.2-9.4 1.4-2.1-4.3 4.6-8.6c3.9 2.6 6.5 6.7 6.9 11.5Zm-10.3-13-3.3 6.9-4.6-7.1c1.1-.3 2.2-.4 3.4-.4 1.6-.1 3.1.1 4.5.6Zm-11.9 1.4 5.4 8.3-12.5 2.4c.6-4.5 3.3-8.4 7.1-10.7Zm-7.2 13.8 14.1-3.1 1.6 3.7-11.8 8.6c-2.2-2.4-3.7-5.6-3.9-9.2Zm14.7 13.9c-2.7 0-5.3-.8-7.5-2.1l9.3-8 2.2 9.5c-1.3.4-2.7.6-4 .6Zm8.3-2.6-2.3-8.7 8.3-.4c-.7 3.8-2.9 7-6 9.1Z" class="st9"/></g><g id="mastodon"><path d="m48 192-48 1.4L1.4 240l46.6-1.4V192Z" class="st19"/><path d="M34.9 198.9h-19c0 .1-6 5.7-6 5.7l-.2 15.7 3.4 8.6 10.1 4.3 8.4-2.4-.4-3-8 .9-3.9-4.7h18.2l3.7-3.9.7-15.3-7-5.9Z" style="fill:#f3f6f5"/><path d="m36 217.8-6.8-14.9-4.7 9.1-3.9-8.6-6.9 15 22.3-.6Z" class="st19"/></g><g id="tumblr"><path d="M144 142.6 97.4 144 96 97.4l48-1.4v46.6Z" style="fill:#36455d"/><path d="m133.3 119.5.8-7.7h-8.9l.3-7.8-9.1.4v7.4h-6.3l-.3 6.3 6.9.4.3 14.8 13.9 3.6 1.2-6.9-7.4-2.2.3-8.8 8.3.5Z" class="st9"/></g><g id="spotify"><path d="M96 238.6 49.4 240 48 193.4l48-1.4v46.6Z"/><circle cx="72" cy="216" r="19.6" style="fill:#1ed660"/><path d="m60.4 221 1.6 2.6 8.2-1.6 10 3.4 1.6-2.6-11.3-3.6-10.1 1.8Zm.9-3.5L72 216l10.2 4.2 2.1-2.4-12.4-4.5-12.1 1.4 1.5 2.8Zm-1.5-6.3c0-.2-1.3-3.2-1.3-3.2l15.1-1.9 13 5.2-2.6 2.9-11.1-4.5-13.1 1.5Z"/></g><g id="bluesky"><path d="M144 238.6 97.4 240 96 193.4l48-1.4v46.6Z" style="fill:#1185fe"/><path d="m111.5 220-7.8 5.5 10.6 8.8 6.2-9.4 7.8 9.6s9.2-9.8 8.6-10.1-8.2-4.5-8.2-4.5l12.2-6.9s-6.4-16.3-6.7-16.3-13.9 17.9-13.9 17.9l-16.4-18.1-2.4 17.9 10 5.5Z" class="st9"/></g><g id="threads"><path d="m192 238.6-46.6 1.4-1.4-46.6 48-1.4v46.6Z" style="fill:#0a0a0a"/><path d="m172.1 204.2-12.5 3.5 4 3.7 6.8-3.7 2.1 5.4-10.8 1.4-1.9 8 8.9 2.8 7.5-7.7 2.8 4.7-7.8 8.3-14.2-4.3-2.6-19.7 16.1-6.6 9.6 8.7h4.7l-13.3-12.9-20.4 9.6 3 24.1 18.5 5.8 11.9-14-9.4-8.2-3.1-8.9Zm-4.6 18.7-5.1-5.1 10.1-1.9-4.9 7h-.1Z" class="st9"/></g><g id="link"><path d="M48 0 0 1.4 1.4 48 48 46.6V0z" style="fill:#a6a8ab"/><path d="m22.3 14.3 4.3 1.4 4.9-4.4 5.1.7-.5 5.5-7.5 7.4-4.6 1.3-2.7-2.1-2.2 2.8 3.9 3.4 8.1-1.6 9.6-9.9.2-10.2-11.4-1-7.2 6.7z" class="st9"/><path d="m30.2 20.6-5.1-2.7-6.2.4L8.4 28l-1.3 9.3 4.6 4 8.4-1.4 6.8-7.2-5.1-.4-5.2 4.2-5-.5.4-5.5 8.3-8.6 3.7-.5 2.4 1.9 3.8-2.7z" class="st9"/></g><g id="medium"><path d="M144 190.6 97.4 192 96 145.4l48-1.4v46.6z" class="st3"/><path d="m104.4 180.2 2.8-2.4.6-19.8-3.2-3.4 9.7.5 6.4 14.9 6-15.2 8.4-.7-2.9 3.1.3 20.8 2.4 2-10.8.3 1.6-2.6v-14.1l-7.4 16.5-8.5-17.8v15.9l1.9 1.9h-7.5Z" class="st9"/><path d="m144 160.5-8 3.5-1.7 8.8s4.2 7.2 4.6 7.3 5 1.1 5 1.1v-4.6l-4.5-2.9-.6-3.8h5v-1.7h-5l1.9-3.7 3.1-2.1v-1.8Z" class="st9"/></g><g id="codepen"><path d="M48 286.6 1.4 288 0 241.4l48-1.4v46.6z"/><path d="M24.6 245.4 6.7 257.6v12.1c-.1 0 18 12.9 18 12.9l18.1-12.8.3-12.2-18.6-12.2Zm1.5 5.4 12.8 7.3-5.6 4.1-7.3-5.3v-6Zm-2.9-.4.3 6.5-7 4.9-5.1-4.1 11.8-7.3ZM9.7 261.3l3.9 2.4-4.1 3v-5.3Zm1.7 8.1 4.6-3.7 6.8 4.4.3 7-11.7-7.7Zm8.4-6.2 5.3-3.5 5.2 4.1-5.3 3.5-5.2-4.1Zm6.3 13.8v-7l6.6-4.5 5.9 4.4-12.5 7.2Zm13.4-11.1-3.8-2.8 4.1-2.4-.3 5.2Z" class="st9"/></g></svg>