<?xml version="1.0" encoding="utf-8"?>
<!-- Generator: Adobe Illustrator 22.1.0, SVG Export Plug-In . SVG Version: 6.00 Build 0)  -->
<!DOCTYPE svg PUBLIC "-//W3C//DTD SVG 1.1//EN" "http://www.w3.org/Graphics/SVG/1.1/DTD/svg11.dtd">
<svg version="1.1" id="Layer_1" xmlns="http://www.w3.org/2000/svg" xmlns:xlink="http://www.w3.org/1999/xlink" x="0px" y="0px"
	 width="192px" height="192px" viewBox="0 0 192 192" style="enable-background:new 0 0 192 192;" xml:space="preserve">
<style type="text/css">
	.st0{fill:#2AA9E0;}
	.st1{fill:#FFFFFF;}
	.st2{fill:#1B75BB;}
	.st3{fill:#0098CC;}
	.st4{fill:#E3E4E5;}
	.st5{fill:#BE2427;}
	.st6{fill:#231F20;}
	.st7{fill:#DC1A23;}
	.st8{fill:#00A0E3;}
	.st9{fill:url(#SVGID_1_);}
	.st10{fill:#2F5191;}
	.st11{fill:#36455D;}
	.st12{fill:#36455C;}
	.st13{fill:#CC2127;}
	.st14{fill:#3664AE;}
	.st15{fill:#EC1F80;}
	.st16{fill:#DB4135;}
	.st17{fill:#EF578D;}
	.st18{fill:#FFFC00;}
</style>
<g>
	<g>
		<polygon class="st0" points="96,46.6 49.4,48 48,1.4 96,0 		"/>
		<polygon class="st1" points="79.6,10.2 72.4,12.9 71.7,19.3 57.8,11.7 61.4,20.6 57.3,20.5 63.3,26.3 59.6,27.1 65.7,31.6 
			61.3,33.7 55.6,33.9 67.2,37.8 82.5,30.4 84.7,18.1 88.4,14.4 83.2,15.8 87.9,11.4 82.7,12.5 		"/>
	</g>
	<g>
		<polygon class="st2" points="192,46.6 145.4,48 144,1.4 192,0 		"/>
		<path class="st1" d="M159.7,11.4c0,2.4-2,4.4-4.4,4.4c-2.4,0-4.4-2-4.4-4.4c0-2.4,2-4.4,4.4-4.4C157.7,6.9,159.7,8.9,159.7,11.4z"
			/>
		<polygon class="st1" points="151.8,18.2 151.8,42.2 159.6,42.5 160.6,17.9 		"/>
		<polygon class="st1" points="178.8,18.4 178.8,41.9 186,42.4 187.2,18.1 		"/>
		<polygon class="st1" points="166.2,19 165.2,42.4 185.9,42.3 		"/>
	</g>
	<g>
		<g>
			<polygon class="st3" points="96,94.6 49.4,96 48,49.4 96,48 			"/>
			<polygon class="st1" points="62.1,57.4 54,66.1 61,65.2 67.8,88.1 74.5,88.1 91.1,59.8 75.6,56.9 72.8,64 80.5,64.4 71.5,76 
				68.3,57.4 			"/>
		</g>
		<g>
			<polygon class="st4" points="48,94.6 1.4,96 0,49.4 48,48 			"/>
			<polygon class="st5" points="48,94.6 1.4,96 0.7,73.1 48,73.1 			"/>
			<polygon class="st6" points="15.1,55.8 3.6,55.7 8,61.5 8,69.2 11.1,69.4 11.3,61.5 			"/>
			<path class="st6" d="M31.7,56.1c0,0.2-4.2,14,5.3,14.1c9.5,0.1,5.9-13.8,5.9-13.8L31.7,56.1z"/>
			<path class="st6" d="M29.6,62.4c0,4-3.2,7.2-7.2,7.2c-4,0-7.2-3.2-7.2-7.2c0-4,3.2-7.2,7.2-7.2C26.4,55.1,29.6,58.4,29.6,62.4z"
				/>
			<path class="st1" d="M14.7,76.7c0,0.2-4.2,14.2,5.4,14.3c9.6,0.1,6-14,6-14L14.7,76.7z"/>
			<polygon class="st1" points="13.3,76.2 2.1,76.2 1.9,79.2 5.5,79.4 5.7,90.3 8.9,90.4 9.2,79.6 12.9,79.8 			"/>
			<polygon class="st1" points="37.6,78 37.6,91 46.8,91.1 46.6,87 43,86.9 42.9,82.5 40.8,82.6 40.8,77.5 			"/>
			<path class="st1" d="M32.7,83.1c1.6-0.4,3-1.3,3-3.1c0-4.2-7.4-4.2-7.4-4.2l0.7,15c0,0,7.6,0.9,7.6-3.7
				C36.6,84.8,34.7,83.7,32.7,83.1z"/>
		</g>
		<g>
			<polygon class="st7" points="144,94.6 97.4,96 96,49.4 144,48 			"/>
			<polygon class="st1" points="122,78.6 120.2,74.9 113.3,79.5 107.6,76.5 106.9,67 114.3,62.9 121.4,68.5 130.7,81.5 136.8,80.7 
				138.9,71.1 129.5,67.1 131.5,62.4 136.1,64.8 138.1,63.4 133.8,59.4 127,60 125.9,64.4 128.5,70.5 136.1,73.8 134.7,77.5 
				130.7,78.2 119.3,61.2 112.7,60 102.7,65.4 104.2,77.2 110.2,83.6 119.4,81.8 			"/>
		</g>
		<g>
			<polygon class="st8" points="192,94.6 145.4,96 144,49.4 192,48 			"/>
			<polygon class="st1" points="185,55.9 169.8,55.9 172.6,60.8 182.6,60.8 			"/>
			<polygon class="st1" points="169.6,66.5 169.7,86.8 189.2,87.2 188.7,80.8 181.1,80.6 180.9,73.7 176.4,73.9 176.3,66 			"/>
			<path class="st1" d="M149.9,87.9l-0.8-17.5c0,0,16.8,0.1,16.8,9.7C166,89.7,149.9,87.9,149.9,87.9z"/>
			<path class="st1" d="M149.3,74.7l-0.6-16c0,0,14.4,0.1,14.4,8.8C163.1,76.3,149.3,74.7,149.3,74.7z"/>
		</g>
	</g>
	<g>
		<g>
			
				<radialGradient id="SVGID_1_" cx="53.5853" cy="141.4429" r="55.6569" fx="50.8332" fy="141.0989" gradientTransform="matrix(0.6836 -0.7299 0.6799 0.6368 -79.2159 90.4882)" gradientUnits="userSpaceOnUse">
				<stop  offset="3.558841e-02" style="stop-color:#FFD042"/>
				<stop  offset="0.5194" style="stop-color:#EC1F80"/>
				<stop  offset="1" style="stop-color:#2985BA"/>
			</radialGradient>
			<polygon class="st9" points="96,142.8 49.4,144.2 48,97.6 96,96.2 			"/>
			<path class="st1" d="M88.8,102.9l-34.9,0.3l-0.7,34.4l36.5,2L88.8,102.9z M56.7,135.3l0.5-29.9l28.7,0.1l0.3,31.1L56.7,135.3z"/>
			<polygon class="st1" points="80.8,108.7 78.8,110.5 80.7,113.9 83.6,111.9 			"/>
			<path class="st1" d="M74.5,112.4l-4.9-0.3l-7.2,4.3l-0.5,7.9l6.7,6.5l6-0.3l5.3-5.1l0.2-7.1L74.5,112.4z M72.4,127.5l-6.2-1.8
				l-1-5.5l4.3-5.5l5.9,1.9l1.7,6.8L72.4,127.5z"/>
		</g>
		<g>
			<polygon class="st10" points="48,142.8 1.4,144.2 0,97.6 48,96.2 			"/>
			<polygon class="st1" points="41.3,117.7 31.9,117.7 31.8,108.5 38.9,109.9 38.9,101.9 30,101.8 22.8,112.4 23.1,117.7 
				15.8,117.7 15.5,125.5 23.4,125.8 24.2,143.5 32.3,143.3 32,126.2 41.6,126.5 			"/>
		</g>
		<g>
			<polygon class="st11" points="144,142.8 97.4,144.2 96,97.6 144,96.2 			"/>
			<polygon class="st1" points="114.3,101.5 113,107.9 107.2,111 107.3,119.4 111.6,119.9 111.7,131.1 116.5,138.1 125.9,139.9 
				135.6,136.1 132.7,128.2 127.9,128.2 127.6,119.7 133.9,119.7 134.1,109.1 127.6,109.1 127.4,101.5 			"/>
			<polygon class="st12" points="125.3,104.1 120.3,103.6 117.7,109.5 112.7,112.6 112.7,117.3 116.5,117.4 116.9,130 121.3,135.8 
				127.4,137.6 132.9,135.5 131.4,130.8 126.9,130.8 125.3,128.5 125.4,117 131.8,117.3 131.8,110.7 125.4,111.2 			"/>
		</g>
		<g>
			<polygon class="st13" points="192,142.6 145.4,144 144,97.4 192,96 			"/>
			<path class="st1" d="M160.2,143.2l-0.5-4.1l3.7-15.6v-8.1c0,0,4.4-3.9,5.1-3.2c0.7,0.7,2.9,2.9,2.7,3.9c-0.2,1-2.7,10-2.7,10
				l4.6,4.4l6.1-5.1l1.2-9.3l-4.9-7.6l-11-0.5l-6.6,6.8l0.2,7.8l2,2l-1.7,4.1l-3.4-3.4l-2.7-7.3l3.7-9.3l7.1-4.4l11-1.5l8.1,4.1
				l5.4,9.8l-3.4,10.5l-6.3,5.9l-4.6,1.5l-6.8-3.7l-1.2,9.5l-2.7,3.9L160.2,143.2z"/>
		</g>
	</g>
	<g>
		<polygon class="st1" points="144,46.6 97.4,48 96,1.4 144,0 		"/>
		<path class="st14" d="M118.9,25.3c0,5-4.1,9-9,9c-5,0-9-4.1-9-9c0-5,4-9,9-9C114.9,16.2,118.9,20.3,118.9,25.3z"/>
		<path class="st15" d="M139.6,24.6c0,5-4.1,9.1-9.1,9.1c-5,0-9.1-4.1-9.1-9.1c0-5,4.1-9.1,9.1-9.1
			C135.5,15.5,139.6,19.6,139.6,24.6z"/>
	</g>
	<g>
		<polygon class="st16" points="48,46.6 1.4,48 0,1.4 48,0 		"/>
		<g>
			<polygon class="st1" points="35.9,17.4 35.9,22.4 31,22.5 31.3,25.3 36,25.2 36,30 39,30 38.9,25.2 43.4,25.3 43.3,22.3 
				38.9,22.3 38.7,17.6 			"/>
			<g>
				<path class="st1" d="M18.7,36.4l1.7-26c0,0-15.4-0.2-15.6,14C4.5,38.8,18.7,36.4,18.7,36.4z"/>
				<polygon class="st1" points="21,20.8 22.4,37.4 28.7,37.6 29.6,21.7 				"/>
			</g>
		</g>
	</g>
	<g>
		<g>
			<polygon class="st17" points="96,191 49.4,192.4 48,145.8 96,144.4 			"/>
			<path class="st1" d="M72.6,149.7c-10.7,0-19.4,8.7-19.4,19.4c0,10.7,8.7,19.4,19.4,19.4c10.7,0,19.4-8.7,19.4-19.4
				C92,158.4,83.3,149.7,72.6,149.7z M87.3,167.9l-9.4,1.9l-0.7-2.6l-1.4-2.2l4.6-8.6C84.3,159,86.9,163.1,87.3,167.9z M77,154.9
				l-3.3,6.9l-4.6-7.1c1.1-0.3,2.2-0.4,3.4-0.4C74.1,154.2,75.6,154.4,77,154.9z M65.1,156.3l5.4,8.3L58,167
				C58.6,162.5,61.3,158.6,65.1,156.3z M57.9,170.1L72,167l1.2,1.8l0.4,1.9l-0.2,0l-11.6,8.6C59.6,176.9,58.1,173.7,57.9,170.1z
				 M72.6,184c-2.7,0-5.3-0.8-7.5-2.1l9.3-8l2.2,9.5C75.3,183.8,73.9,184,72.6,184z M80.9,181.4l-2.3-8.7l8.3-0.4
				C86.2,176.1,84,179.3,80.9,181.4z"/>
		</g>
		<g>
			<g>
				<polygon class="st6" points="192,144.4 144,145.8 145.4,192.4 192,191 				"/>
			</g>
			<path class="st1" d="M163.4,191.9l0.2-5.7l-6.8-0.1l-2.7-5.5l-4.7-2.2l5.4-0.1c0,0,4.1,5.5,4.7,5.4c0.6-0.1,4.3-0.9,4.3-0.9
				l2.6-3.2l-10.3-4.1l-2.8-9.9l3.5-4.5l-0.6-3l0.8-4.4l6.7,3.5l6.1-0.8l6.1,0.8l6.7-3.5l1.2,4.4l-1,3l4,4.5l-2.7,9.9l-10.9,4.1
				l2.8,3l0.7,8.9L163.4,191.9z"/>
		</g>
		<g>
			<g>
				<polygon class="st18" points="48,144.4 0,145.8 1.4,192.4 48,191 				"/>
			</g>
			<g>
				<polygon class="st1" points="17.2,181.5 11.2,182.7 11,179.6 6.5,177.4 11.5,174 13.6,169.8 7.2,166.2 11.2,164.6 14.1,165 
					14,157.5 20,151.5 28,152.6 33.4,157.5 33.6,164.9 35.6,164.5 39.8,166.1 33.8,169.8 35.4,173.5 41.7,178.3 37.2,179.6 
					36.3,182.3 32,181.7 22.8,185.4 				"/>
				<path class="st6" d="M20.3,152.3l7.4,1l4.9,4.6l0.2,8l2.7-0.5l2.5,1l-5.2,3.2l1.9,4.5l5.3,4l-3.4,1l-0.9,2.5l-3.9-0.5l-9,3.6
					l-5.5-3.9l-5.4,1.1l-0.2-2.7L8,177.3l4.2-2.8l2.5-5l-5.7-3.2l2.4-1l3.6,0.5l-0.1-8L20.3,152.3 M19.8,150.7l-0.5,0.5l-5.5,5.6
					l-0.4,0.4l0,0.6l0.1,6.2l-1.8-0.3l-0.4-0.1l-0.4,0.1l-2.4,1L5.5,166l2.7,1.5l4.4,2.5l-1.7,3.4L7.1,176L5,177.5l2.4,1.1l3,1.4
					l0.1,1.8l0.1,1.7l1.6-0.3l4.8-0.9l5,3.5l0.7,0.5l0.8-0.3l8.6-3.5l3.6,0.5l1.2,0.2l0.4-1.2l0.6-1.7l2.6-0.8l2.8-0.8l-2.4-1.8
					l-5-3.8l-1.3-2.9l4.1-2.5l2.6-1.6l-2.9-1.1l-2.5-1l-0.4-0.2l-0.4,0.1l-1,0.2l-0.2-6.2l0-0.6l-0.5-0.4l-4.9-4.6l-0.3-0.3
					l-0.5-0.1l-7.4-1L19.8,150.7L19.8,150.7z"/>
			</g>
		</g>
		<g>
			<polygon class="st6" points="144,191 97.4,192.4 96,145.8 144,144.4 			"/>
			<path class="st1" d="M103.3,182l4.6-6.7l0.6-15.2l-4.5-5.4l11.3,0.7L122,171c0,0,5.9-15.9,6.3-15.9c0.4,0,10-0.8,10-0.8l-4.2,4.6
				l0.3,18.9l3.2,3.5l-14.3,1.2l4.1-5l0.1-13.2l-7.8,17.2l-8.9-18.6v12.8l4.2,5.3L103.3,182z"/>
		</g>
	</g>
</g>
</svg>
