<?xml version="1.0" encoding="utf-8"?>
<!-- Generator: Adobe Illustrator 27.2.0, SVG Export Plug-In . SVG Version: 6.00 Build 0)  -->
<svg version="1.1" id="social-icons" xmlns="http://www.w3.org/2000/svg" xmlns:xlink="http://www.w3.org/1999/xlink" x="0px"
	 y="0px" width="192px" height="240px" viewBox="0 0 192 240" style="enable-background:new 0 0 192 240;" xml:space="preserve">
<style type="text/css">
	.st0{fill:#2AA9E0;}
	.st1{fill:#FFFFFF;}
	.st2{fill:#1B75BB;}
	.st3{fill:#0098CC;}
	.st4{fill:#E3E4E5;}
	.st5{fill:#BE2427;}
	.st6{fill:#231F20;}
	.st7{fill:#00A0E3;}
	.st8{fill:url(#SVGID_1_);}
	.st9{fill:#2F5191;}
	.st10{fill:#3664AE;}
	.st11{fill:#EC1F80;}
	.st12{fill:#DB4135;}
	.st13{fill:#FFFC00;}
	.st14{fill:#DC1A23;}
	.st15{fill:#CC2127;}
	.st16{fill:#EF578D;}
	.st17{fill:#4E47E1;}
	.st18{fill:#F3F6F5;}
	.st19{fill:#36455D;}
	.st20{fill:#1ED660;}
</style>
<g id="twitter">
	<polygon class="st0" points="96,46.6 49.4,48 48,1.4 96,0 	"/>
	<polygon class="st1" points="79.6,10.2 72.4,12.9 71.7,19.3 57.8,11.7 61.4,20.6 57.3,20.5 63.3,26.3 59.6,27.1 65.7,31.6 
		61.3,33.7 55.6,33.9 67.2,37.8 82.5,30.4 84.7,18.1 88.4,14.4 83.2,15.8 87.9,11.4 82.7,12.5 	"/>
</g>
<g id="linkedin">
	<polygon class="st2" points="192,46.6 145.4,48 144,1.4 192,0 	"/>
	<path class="st1" d="M159.7,11.4c0,2.4-2,4.4-4.4,4.4s-4.4-2-4.4-4.4s2-4.4,4.4-4.4C157.7,6.9,159.7,8.9,159.7,11.4z"/>
	<polygon class="st1" points="151.8,18.2 151.8,42.2 159.6,42.5 160.6,17.9 	"/>
	<polygon class="st1" points="187.2,18.1 178.8,18.4 178.8,33.9 166.2,19 165.2,42.4 186,42.4 	"/>
</g>
<g id="vimeo">
	<polygon class="st3" points="96,94.6 49.4,96 48,49.4 96,48 	"/>
	<polygon class="st1" points="62.1,57.4 54,66.1 61,65.2 67.8,88.1 74.5,88.1 91.1,59.8 75.6,56.9 72.8,64 80.5,64.4 71.5,76 
		68.3,57.4 	"/>
</g>
<g id="youtube">
	<polygon class="st4" points="48,94.6 1.4,96 0,49.4 48,48 	"/>
	<polygon class="st5" points="48,94.6 1.4,96 0.7,73.1 48,73.1 	"/>
	<polygon class="st6" points="15.1,55.8 3.6,55.7 8,61.5 8,69.2 11.1,69.4 11.3,61.5 	"/>
	<path class="st6" d="M31.7,56.1c0,0.2-4.2,14,5.3,14.1s5.9-13.8,5.9-13.8L31.7,56.1z"/>
	<path class="st6" d="M29.6,62.4c0,4-3.2,7.2-7.2,7.2s-7.2-3.2-7.2-7.2s3.2-7.2,7.2-7.2C26.4,55.1,29.6,58.4,29.6,62.4z"/>
	<path class="st1" d="M14.7,76.7c0,0.2-4.2,14.2,5.4,14.3c9.6,0.1,6-14,6-14L14.7,76.7z"/>
	<polygon class="st1" points="13.3,76.2 2.1,76.2 1.9,79.2 5.5,79.4 5.7,90.3 8.9,90.4 9.2,79.6 12.9,79.8 	"/>
	<polygon class="st1" points="37.6,78 37.6,91 46.8,91.1 46.6,87 43,86.9 42.9,82.5 40.8,82.6 40.8,77.5 	"/>
	<path class="st1" d="M32.7,83.1c1.6-0.4,3-1.3,3-3.1c0-4.2-7.4-4.2-7.4-4.2l0.7,15c0,0,7.6,0.9,7.6-3.7
		C36.6,84.8,34.7,83.7,32.7,83.1z"/>
</g>
<g id="behance">
	<polygon class="st7" points="192,94.6 145.4,96 144,49.4 192,48 	"/>
	<polygon class="st1" points="185,55.9 169.8,55.9 172.6,60.8 182.6,60.8 	"/>
	<polygon class="st1" points="169.6,66.5 169.7,86.8 189.2,87.2 188.7,80.8 181.1,80.6 180.9,73.7 176.4,73.9 176.3,66 	"/>
	<path class="st1" d="M160.4,72.7c1.6-1.1,2.7-2.8,2.7-5.2c0-8.7-14.4-8.8-14.4-8.8l1.2,29.2c0,0,16.1,1.8,16-7.8
		C165.9,76.4,163.4,74.2,160.4,72.7z"/>
</g>
<g id="instagram">
	
		<radialGradient id="SVGID_1_" cx="-1121.5426" cy="2150.1816" r="55.6569" fx="-1124.2948" fy="2149.8376" gradientTransform="matrix(0.6836 -0.7299 0.6799 0.6368 -641.6399 -2046.6024)" gradientUnits="userSpaceOnUse">
		<stop  offset="3.558841e-02" style="stop-color:#FFD042"/>
		<stop  offset="0.5194" style="stop-color:#EC1F80"/>
		<stop  offset="1" style="stop-color:#2985BA"/>
	</radialGradient>
	<polygon class="st8" points="96,142.6 49.4,144 48,97.4 96,96 	"/>
	<path class="st1" d="M88.8,102.7L53.9,103l-0.7,34.4l36.5,2L88.8,102.7z M56.7,135.1l0.5-29.9l28.7,0.1l0.3,31.1L56.7,135.1z"/>
	<polygon class="st1" points="80.8,108.5 78.8,110.3 80.7,113.7 83.6,111.7 	"/>
	<path class="st1" d="M74.5,112.2l-4.9-0.3l-7.2,4.3l-0.5,7.9l6.7,6.5l6-0.3l5.3-5.1l0.2-7.1L74.5,112.2z M72.4,127.3l-6.2-1.8
		l-1-5.5l4.3-5.5l5.9,1.9l1.7,6.8L72.4,127.3z"/>
</g>
<g id="facebook">
	<polygon class="st9" points="48,142.6 1.4,144 0,97.4 48,96 	"/>
	<polygon class="st1" points="41.3,117.5 31.9,117.5 31.8,108.3 38.9,109.7 38.9,101.7 30,101.6 22.8,112.2 23.1,117.5 15.8,117.5 
		15.5,125.3 23.4,125.6 24.2,143.3 32.3,143.1 32,126 41.6,126.3 	"/>
</g>
<g id="flickr">
	<polygon class="st1" points="144,46.6 97.4,48 96,1.4 144,0 	"/>
	<path class="st10" d="M118.9,25.3c0,5-4.1,9-9,9c-5,0-9-4.1-9-9c0-5,4-9,9-9C114.9,16.2,118.9,20.3,118.9,25.3z"/>
	<path class="st11" d="M139.6,24.6c0,5-4.1,9.1-9.1,9.1s-9.1-4.1-9.1-9.1s4.1-9.1,9.1-9.1S139.6,19.6,139.6,24.6z"/>
</g>
<g id="google-plus">
	<polygon class="st12" points="48,46.6 1.4,48 0,1.4 48,0 	"/>
	<g>
		<polygon class="st1" points="35.9,17.4 35.9,22.4 31,22.5 31.3,25.3 36,25.2 36,30 39,30 38.9,25.2 43.4,25.3 43.3,22.3 
			38.9,22.3 38.7,17.6 		"/>
		<g>
			<path class="st1" d="M18.7,36.4l1.7-26c0,0-15.4-0.2-15.6,14C4.5,38.8,18.7,36.4,18.7,36.4z"/>
			<polygon class="st1" points="21,20.8 22.4,37.4 28.7,37.6 29.6,21.7 			"/>
		</g>
	</g>
</g>
<g id="github">
	<g>
		<polygon class="st6" points="192,144 144,145.4 145.4,192 192,190.6 		"/>
	</g>
	<path class="st1" d="M163.4,191.5l0.2-5.7l-6.8-0.1l-2.7-5.5l-4.7-2.2l5.4-0.1c0,0,4.1,5.5,4.7,5.4c0.6-0.1,4.3-0.9,4.3-0.9
		l2.6-3.2l-10.3-4.1l-2.8-9.9l3.5-4.5l-0.6-3l0.8-4.4l6.7,3.5l6.1-0.8l6.1,0.8l6.7-3.5l1.2,4.4l-1,3l4,4.5l-2.7,9.9l-10.9,4.1l2.8,3
		l0.7,8.9L163.4,191.5z"/>
</g>
<g id="snapchat">
	<g>
		<polygon class="st13" points="48,144 0,145.4 1.4,192 48,190.6 		"/>
	</g>
	<g>
		<polygon class="st1" points="17.2,181.1 11.2,182.3 11,179.2 6.5,177 11.5,173.6 13.6,169.4 7.2,165.8 11.2,164.2 14.1,164.6 
			14,157.1 20,151.1 28,152.2 33.4,157.1 33.6,164.5 35.6,164.1 39.8,165.7 33.8,169.4 35.4,173.1 41.7,177.9 37.2,179.2 
			36.3,181.9 32,181.3 22.8,185 		"/>
		<path class="st6" d="M20.3,151.9l7.4,1l4.9,4.6l0.2,8l2.7-0.5l2.5,1l-5.2,3.2l1.9,4.5l5.3,4l-3.4,1l-0.9,2.5l-3.9-0.5l-9,3.6
			l-5.5-3.9l-5.4,1.1l-0.2-2.7L8,176.9l4.2-2.8l2.5-5L9,165.9l2.4-1l3.6,0.5l-0.1-8L20.3,151.9 M19.8,150.3l-0.5,0.5l-5.5,5.6
			l-0.4,0.4v0.6l0.1,6.2l-1.8-0.3l-0.4-0.1l-0.4,0.1l-2.4,1l-3,1.3l2.7,1.5l4.4,2.5l-1.7,3.4l-3.8,2.6L5,177.1l2.4,1.1l3,1.4
			l0.1,1.8l0.1,1.7l1.6-0.3l4.8-0.9l5,3.5l0.7,0.5l0.8-0.3l8.6-3.5l3.6,0.5l1.2,0.2l0.4-1.2l0.6-1.7l2.6-0.8l2.8-0.8l-2.4-1.8
			l-5-3.8l-1.3-2.9l4.1-2.5l2.6-1.6l-2.9-1.1l-2.5-1l-0.4-0.2l-0.4,0.1l-1,0.2l-0.2-6.2v-0.6l-0.5-0.4l-4.9-4.6l-0.3-0.3l-0.5-0.1
			l-7.4-1L19.8,150.3L19.8,150.3z"/>
	</g>
</g>
<g id="last-fm">
	<g>
		<polygon class="st14" points="144,94.6 97.4,96 96,49.4 144,48 		"/>
	</g>
	<polygon class="st1" points="121.2,79.3 119.4,75.6 112.5,80.2 107.4,76.1 106.1,67.7 113.4,65 129.9,82.2 136,81.4 139.3,72.1 
		128.7,67.8 130.7,63.1 135.3,65.5 137.3,64.1 133,60.1 128,60.3 125.4,69.1 135.3,74.5 133.9,78.2 131.2,78.8 114,60.4 101.9,66.1 
		103.4,77.9 112.5,85.1 	"/>
</g>
<g id="pinterest">
	<polygon class="st15" points="192,142.6 145.4,144 144,97.4 192,96 	"/>
	<path class="st1" d="M158.6,143.6l4.7-28l5.1-3.2l2.7,3.9l-2.7,10l10.7-0.7l2.3-9.5l-6.3-8.5l-13.9,2.7l-3.4,6.9l2.3,7.6l-3.1,4.3
		l-4.7-10.9l4.9-11.5l20-4.3l10.5,14.5l-4.5,14.6l-16.6-0.4l-1.8,12.3L158.6,143.6z"/>
</g>
<g id="dribble">
	<polygon class="st16" points="96,190.6 49.4,192 48,145.4 96,144 	"/>
	<path class="st1" d="M72.6,149.3c-10.7,0-19.4,8.7-19.4,19.4s8.7,19.4,19.4,19.4S92,179.4,92,168.7S83.3,149.3,72.6,149.3z
		 M87.3,167.5l-9.4,1.4l-2.1-4.3l4.6-8.6C84.3,158.6,86.9,162.7,87.3,167.5z M77,154.5l-3.3,6.9l-4.6-7.1c1.1-0.3,2.2-0.4,3.4-0.4
		C74.1,153.8,75.6,154,77,154.5z M65.1,155.9l5.4,8.3L58,166.6C58.6,162.1,61.3,158.2,65.1,155.9z M57.9,169.7l14.1-3.1l1.6,3.7
		l-11.8,8.6C59.6,176.5,58.1,173.3,57.9,169.7z M72.6,183.6c-2.7,0-5.3-0.8-7.5-2.1l9.3-8l2.2,9.5C75.3,183.4,73.9,183.6,72.6,183.6
		z M80.9,181l-2.3-8.7l8.3-0.4C86.2,175.7,84,178.9,80.9,181z"/>
</g>
<g id="mastodon">
	<polygon class="st17" points="48,192 0,193.4 1.4,240 48,238.6 	"/>
	<path class="st18" d="M34.9,198.9l-19,0.1l-6,5.6l-0.2,15.7l3.4,8.6l10.1,4.3l8.4-2.4l-0.4-3l-8,0.9l-3.9-4.7h18.2l3.7-3.9
		l0.7-15.3L34.9,198.9z"/>
	<polygon class="st17" points="36,217.8 29.2,202.9 24.5,212 20.6,203.4 13.7,218.4 	"/>
</g>
<g id="tumblr">
	<g>
		<polygon class="st19" points="144,142.6 97.4,144 96,97.4 144,96 		"/>
	</g>
	<polygon class="st1" points="133.3,119.5 134.1,111.8 125.2,111.8 125.5,104 116.4,104.4 116.5,111.8 110.1,111.8 109.8,118.1 
		116.7,118.5 117,133.3 117,133.3 130.9,136.9 132.1,130 124.7,127.8 125,119 	"/>
</g>
<g id="spotify">
	<polygon points="96,238.6 49.4,240 48,193.4 96,192 	"/>
	<g>
		<circle class="st20" cx="72" cy="216" r="19.6"/>
		<polygon points="60.4,221 62,223.6 70.2,222 80.2,225.4 81.8,222.8 70.5,219.2 		"/>
		<polygon points="61.3,217.5 72,216 82.2,220.2 84.3,217.8 71.9,213.3 59.8,214.7 		"/>
		<path d="M59.8,211.2c-0.1-0.2-1.3-3.2-1.3-3.2l15.1-1.9l13,5.2l-2.6,2.9l-11.1-4.5L59.8,211.2z"/>
	</g>
</g>
<g id="medium">
	<polygon class="st6" points="144,190.6 97.4,192 96,145.4 144,144 	"/>
	<ellipse class="st1" cx="109.9" cy="168" rx="11.3" ry="12.3"/>
	<ellipse class="st1" cx="129.3" cy="168" rx="5.7" ry="11.7"/>
	<ellipse class="st1" cx="139.2" cy="168" rx="2.2" ry="10.3"/>
</g>
</svg>
