<?xml version="1.0" encoding="utf-8"?>
<!-- Generator: Adobe Illustrator 22.1.0, SVG Export Plug-In . SVG Version: 6.00 Build 0)  -->
<svg version="1.1" id="Layer_1" xmlns="http://www.w3.org/2000/svg" xmlns:xlink="http://www.w3.org/1999/xlink" x="0px" y="0px"
	 width="192px" height="192px" viewBox="0 0 192 192" style="enable-background:new 0 0 192 192;" xml:space="preserve">
<style type="text/css">
	.st0{fill:#FA4B31;}
	.st1{fill:#FFFFFF;}
	.st2{fill:#E6E7E8;}
	.st3{fill:#231F20;}
	.st4{fill:#58595B;}
	.st5{fill:#BCBEC0;}
	.st6{fill:#EC1C24;}
	.st7{fill:#DA0305;}
	.st8{fill:#212C46;}
	.st9{fill:#2F2F30;}
	.st10{fill:#00ADEE;}
	.st11{fill:#D14A43;}
	.st12{fill:#FFFFFF;stroke:#231F20;stroke-miterlimit:10;}
	.st13{fill:#CD8A72;}
	.st14{fill:#C8BEB3;}
	.st15{fill:#5A462A;}
	.st16{fill:#FEC455;}
	.st17{fill:#FFF100;}
</style>
<g>
	<polygon class="st0" points="96,94.6 49.4,96 48,49.4 96,48 	"/>
	<polygon class="st1" points="61.4,56.5 53.4,60.6 53.6,62.3 58.7,61.4 59.6,83.4 56.4,83.7 56.4,87.5 65.7,86.6 65.7,83.4 
		63.1,82.9 63.4,65.5 69.8,64 74.1,71.6 74.7,86.1 77.6,86.1 77.8,66.4 81.3,65.5 85.7,72.4 85.7,81.1 81.6,81.1 81.9,85.2 92.9,84 
		91.5,81.1 88.3,80.8 88.3,66.6 81.3,61.7 75.4,64.6 68.3,60.6 61.9,61.4 	"/>
</g>
<g>
	<g>
		<polygon class="st2" points="192,0 144,1.4 145.4,48 192,46.6 		"/>
	</g>
	<path class="st3" d="M175.5,40.6c0.1,1.9-1.4,3.5-3.4,3.6c-1.9,0.1-3.5-1.4-3.6-3.4c-0.1-1.9,1.4-3.5,3.4-3.6
		C173.8,37.2,175.4,38.7,175.5,40.6z"/>
	<path class="st3" d="M184.1,20.3c0.1,1.9-1.4,3.5-3.4,3.6c-1.9,0.1-3.5-1.4-3.6-3.4c-0.1-1.9,1.4-3.5,3.3-3.6
		C182.4,16.8,184,18.3,184.1,20.3z"/>
	<polygon class="st3" points="179.6,17.5 185.7,15.9 191.1,23.5 187.9,30.6 179.4,32.4 182.3,36.9 183.2,41.3 181.5,46.8 
		179.1,46.6 181.2,40 175.1,32.7 170.3,33.3 166.6,36.1 165.2,40 167.6,42.7 171,42.3 173.6,43.4 166.7,45.1 164,41.6 164,37.4 
		168.3,31.6 185.9,28.7 188.5,24.2 184.1,18 182,19 	"/>
	<polygon class="st3" points="161.8,34.1 158.7,36.9 153.7,35 149.9,39.1 151.9,48 147.1,48.1 146.3,40.1 149.6,33.8 154.4,32.6 
		152.9,25.1 158.4,18.7 166.5,17.4 169.1,19.9 170.1,24.8 166.9,26.5 166.8,19.6 159.4,20.2 155.4,25.5 157,32.2 	"/>
</g>
<g>
	<g>
		<polygon class="st4" points="48,48 0,49.4 1.4,96 48,94.6 		"/>
	</g>
	<circle class="st3" cx="24" cy="72" r="22.1"/>
	<polygon class="st1" points="35.7,64.8 29.4,76.8 41.8,76.6 	"/>
	<path class="st1" d="M17.3,77.4l-0.6-13.6c0,0-9,0.8-8.6,7.8C8.4,78.5,17.3,77.4,17.3,77.4z"/>
	<path class="st1" d="M19.3,64.5l0.6,14c0,0,10.3-0.7,9.8-8.5C29.2,62.3,19.3,64.5,19.3,64.5z"/>
	<polygon class="st1" points="19.3,64.5 19.5,84.1 23.8,84.1 23.9,64.5 	"/>
</g>
<g>
	<g>
		<polygon class="st1" points="48.3,1.6 95.8,0.3 95.8,46.4 49.6,47.7 		"/>
		<path class="st5" d="M95.5,0.5v45.6l-45.6,1.4L48.5,1.9L95.5,0.5 M96,0L48,1.4L49.4,48L96,46.6V0L96,0z"/>
	</g>
</g>
<g>
	<path class="st6" d="M57,10.6h-6.2l0.2,5.7h6.1L57,10.6 M70.8,10.6h-6.6l-0.1,5.7h6.7V10.6"/>
	<polyline class="st6" points="64.1,16.3 57.1,16.3 57.5,37.4 63.8,37.4 64.1,16.3 	"/>
	<polyline class="st7" points="64.2,10.6 57,10.6 57.1,16.3 64.1,16.3 64.2,10.6 	"/>
	<polyline class="st6" points="74.8,11.4 66.6,37.3 82.9,37.3 75.6,37.3 79.6,26.6 74.8,11.4 	"/>
	<polyline class="st6" points="85.2,11.4 79.6,26.6 82.9,37.3 93.2,37.3 85.2,11.4 	"/>
	<polyline class="st7" points="79.6,26.6 75.6,37.3 82.9,37.3 79.6,26.6 	"/>
</g>
<g>
	<g>
		<polygon class="st1" points="96.3,49.6 143.8,48.3 143.8,94.4 97.6,95.7 		"/>
		<path class="st5" d="M143.5,48.5v45.6l-45.6,1.4l-1.4-45.6L143.5,48.5 M144,48l-48,1.4L97.4,96l46.6-1.4V48L144,48z"/>
	</g>
</g>
<g>
	<g>
		<polygon class="st1" points="144.3,49.6 191.8,48.3 191.8,94.4 145.7,95.7 		"/>
		<path class="st5" d="M191.6,48.5v45.6l-45.6,1.4l-1.4-45.6L191.6,48.5 M192.1,48l-48,1.4l1.4,46.6l46.6-1.4V48L192.1,48z"/>
	</g>
</g>
<g>
	<g>
		<polygon class="st1" points="96.3,97.6 143.8,96.3 143.8,142.4 97.6,143.7 		"/>
		<path class="st5" d="M143.5,96.5v45.6l-45.6,1.4l-1.4-45.6L143.5,96.5 M144,96l-48,1.4l1.4,46.6l46.6-1.4V96L144,96z"/>
	</g>
</g>
<g>
	<g>
		<polygon class="st1" points="144.3,97.6 191.8,96.3 191.8,142.4 145.6,143.7 		"/>
		<path class="st5" d="M191.5,96.5v45.6l-45.6,1.4l-1.4-45.6L191.5,96.5 M192,96l-48,1.4l1.4,46.6l46.6-1.4V96L192,96z"/>
	</g>
</g>
<g>
	<polygon class="st2" points="144,144 96,145.4 97.4,192 144,190.6 	"/>
</g>
<g>
	<polygon class="st2" points="192,144 144,145.4 145.4,192 192,190.6 	"/>
</g>
<g>
	<polygon class="st8" points="48,144 0,145.4 1.4,192 48,190.6 	"/>
</g>
<g>
	<polygon class="st2" points="96,144 48,145.4 49.4,192 96,190.6 	"/>
</g>
<polygon class="st3" points="104.2,55.9 103.8,62.4 106.5,65.8 106.5,58.7 118.2,57.9 117.9,82.3 113.2,90.1 126.2,88.2 120.8,82.2 
	121.4,57.9 133.2,57.2 134.1,63.1 136.2,59.1 135.2,53.8 "/>
<g>
	<polygon class="st9" points="48,0 0,1.4 1.4,48 48,46.6 	"/>
</g>
<g>
	<polygon class="st1" points="22.3,14.3 26.6,15.7 31.5,11.3 36.6,12 36.1,17.5 28.6,24.9 24,26.2 21.3,24.1 19.1,26.9 23,30.3 
		31.1,28.7 40.7,18.8 40.9,8.6 29.5,7.6 	"/>
	<polygon class="st1" points="30.2,20.6 25.1,17.9 18.9,18.3 8.4,28 7.1,37.3 11.7,41.3 20.1,39.9 26.9,32.7 21.8,32.3 16.6,36.5 
		11.6,36 12,30.5 20.3,21.9 24,21.4 26.4,23.3 	"/>
</g>
<polygon class="st10" points="166.5,57.4 159.5,55.4 153.9,60.1 152.9,77.9 157.9,62.1 161.9,60.8 167.4,61.4 "/>
<polygon class="st10" points="169.8,58.1 170.6,61 175.9,60.9 178.9,63.2 182.3,76.5 181.8,57.5 176.2,54.5 "/>
<polygon class="st10" points="174.9,52.1 172.3,51.1 169.9,55.2 "/>
<polygon class="st10" points="161.9,52 165,52 166.8,55.3 163.8,53.4 "/>
<polygon class="st6" points="160.8,62.4 156,75.6 161.3,67.4 168.2,68.2 174.4,67.1 179.7,74.3 176.2,62.1 168.4,63.5 "/>
<polyline class="st6" points="179.7,74.3 178.3,87.9 168.7,92.8 158.3,88.4 156,75.4 161.5,85.5 168.9,88 174.2,85.8 179.7,74.3 "/>
<g>
	<polygon class="st11" points="48,96 0,97.4 1.4,144 48,142.6 	"/>
</g>
<path class="st1" d="M48,130.9l-10.4,0.6l-0.5-9.3L48,121l0-2l-1.6,0.2l-0.2-9.9l1.8-0.1l0-1.7l-13.4,0.1l-0.6-7.3L48,98.9l0-1.5
	l-2.6,0.1l0-1.5l-1.6,0l0.1,1.5l-19.7,1l0.1-2l-2.1,0.2l-0.1,1.9L5.2,99.3l-0.2-2l-2.3,0.1l0.5,2.1L0,99.6v1.5l11.3-0.1l0.5,8.6
	l-11.4-0.3v2.7l3.2-0.1l0.6,10.6l-3.5,0l0,2l11.8-0.5l0.7,8.2l-12.3,1v1.8l2.9-0.1L3.7,144l1.8-0.1l-0.1-9.2l19.9-1l0.1,9.6l1.8-0.1
	l-0.1-9.8l17.2-1l0.8,10.3l1.7-0.1l-0.3-10.4l1.4-0.1L48,130.9z M43.9,109.3l1,9.9l-19,1.6l-1.2-10.4L43.9,109.3z M31,100.2l1.1,8.2
	l-17.2,1.3l-1.6-9.1L31,100.2z M7,122.2L6.1,112l16.5-0.9l1.1,10.3L7,122.2z M15.3,132.8l-1-8.4l20.2-1.7l0.1,8L15.3,132.8z"/>
<polygon class="st12" points="26.9,100.9 31,100.2 32.7,107.9 37.1,97.9 41.5,98.7 35,108.9 43.4,118.5 39.1,119.6 33.3,111.7 
	34.3,120.2 30.3,120.9 "/>
<polygon class="st12" points="22.4,107.3 26,106 28.2,116.9 26.6,117.5 25.8,115.7 22.8,120 17.9,118.8 16.6,106.4 19.7,104.5 
	20.1,113 22.7,115.5 23.9,112.6 "/>
<polygon class="st12" points="11.6,101.1 14.8,102.4 12.8,110 15.4,119.9 11.8,120.3 9.4,110.8 3,106.6 6.3,103.2 10.6,107.9 "/>
<polygon class="st12" points="13.1,122.3 17.2,122.7 17.5,129.6 18.4,129.9 18.8,132.3 17.6,132.9 18.4,139 13.9,139.8 13.6,133 
	11.1,133.8 12.2,140.3 8.2,140.9 7.6,134.1 6.6,134.1 6,131.8 6.9,131.4 5.8,124.4 8.9,122.5 10.9,130.6 13.9,129.6 "/>
<polygon class="st12" points="22.1,125.6 26,124.5 24.5,132 25.4,134.2 26.9,132.4 28.5,127.1 32.2,126.7 30.2,137.1 28.7,136.9 
	28.5,134.9 26.4,138.3 22.4,138.5 20.7,134.1 "/>
<polygon class="st12" points="32.9,126 37,127.3 34.1,136.7 37.7,138.7 40.4,128.3 44.5,129.2 45.7,124.3 33.5,122 "/>
<g>
	<path class="st13" d="M160.3,109.8c0,0-1.3-4.2-1.2-4.4c0-0.3,1.2-3.8,1.2-3.8l3,0.1l1.4,2.8l-1.8,6.2L160.3,109.8z"/>
	<polygon class="st14" points="173.3,105.4 168.9,106.4 169.7,109 174.5,107.7 	"/>
	<path class="st13" d="M182.4,106.9l-1.7-0.2l-0.8,0.5l-2.8-0.6l-3,0.6c0,0-0.9-2-0.8-1.8c0,0.3,3.2,0.3,3.2,0.3l2-0.5l4.4,1.1
		L182.4,106.9z"/>
	<path class="st13" d="M157.8,101c0.1,0,4.6-1.5,4.6-1.5l2.3,1l0-0.5l2,1.1l-0.4-1.8l-3.6-1l-4.1,0.6l-2.4,1L157.8,101z"/>
	<path class="st14" d="M153,137.3l3.4,4c0,0,9,0.5,9.3,0.5c0.4,0,6.5-4.6,6.5-4.6l-3.2-14.4l-4.4-6.5l0.2-3.9l3.7,0.4l1.1-3.8
		l-0.7-2.6l-2.1,0.5l-2.1-0.6l-2,0.9l-1.2,1.9l-2.2-1.5l-0.1-1.3l-0.5-5.1l-3-1.5l1.2,8.4l-0.4,2.4l1.7,6.1l-0.7,15L153,137.3z"/>
	<path class="st15" d="M158.4,106.4l0-3.4l1.1-1.6l1.2-0.9l3,0.5l1.2,2.5l0.1,4.8l0.8,2.2l-1-0.3c0,0-0.5,1.4-0.5,1.3
		c0-0.2-1.3-2.8-1.3-2.9c0-0.1-0.5-2-0.5-2l1.3-1.3l-0.1-1.4l-1-1.4l-1-0.3l-1.7,1L160,105l0.5,1.6l-0.6,2.2l-1,1.6L158.4,106.4z"/>
</g>
<circle class="st4" cx="24" cy="168" r="19"/>
<polygon class="st16" points="40.1,168.2 31.7,171.4 23.1,168.6 9.9,171.3 0.7,170.1 1.4,192 48,190.6 48,169.3 "/>
<g>
	<polygon points="96,96 48,97.4 49.4,144 96,142.6 	"/>
</g>
<g>
	<path class="st1" d="M78.4,101c0,6.5,0,13.1,0,19.8c2.8,0,5.3,0,8.1,0c0,3.3-0.1,10.6-0.1,10.6l-7.5,0c0,0,0,5.1,0,7.7
		c-4.3,0-12.6,0-12.6,0v-7.9c0,0-5.8,0-8.7,0c0-3.4,0-6.5,0-9.9c2.8,0,5.6,0,8.7,0c0-6.8,0-13.5,0-20.2C70.4,101,74.3,101,78.4,101
		 M79.4,100h-1H66.3h-1v1v19.2h-7.7h-1v1v9.9v1h1h7.7v6.9v1h1h12.6h1v-1v-6.7l6.5,0l1,0l0-1c0-0.1,0.1-7.3,0.1-10.6v-1h-1h-7.1V101
		V100L79.4,100z"/>
</g>
<g id="zNZNAB.tif_1_">
	<g>
		<path class="st1" d="M78.8,131.3c2.2,0,4.1,0.1,6.1,0c0.6,0,1.5-0.6,1.5-0.9c0.1-3.1,0.1-6.3,0.1-9.6c-2.8,0-5.4,0-8.1,0
			c0-6.7,0-13.2,0-19.8c-4.1,0-8,0-12.1,0c0,6.8,0,13.4,0,20.2c-3.1,0-5.9,0-8.7,0c0,3.3,0,6.5,0,9.9c2.9,0,5.7,0,8.7,0
			c0,2.8,0,5.3,0,7.9c4.3,0,8.4,0,12.6,0C78.8,136.5,78.8,134.1,78.8,131.3z"/>
		<g>
			<path d="M78.8,131.3c0,0,0,5.1,0,7.7c-4.3,0-12.6,0-12.6,0v-7.9c0,0-5.8,0-8.7,0c0-3.4,0-6.5,0-9.9c2.8,0,5.6,0,8.7,0
				c0-6.8,0-13.5,0-20.2c4.2,0,8,0,12.1,0c0,6.5,0,13.1,0,19.8c2.8,0,5.3,0,8.1,0c0,3.3-0.1,10.6-0.1,10.6L78.8,131.3z M74.9,117.5
				c0.2,1,0.4,2,0.6,2.8c-0.4,0.9-0.8,1.8-1.2,2.6c0.1,0.1,0.3,0.3,0.4,0.4c1.4-0.3,2.7-0.6,4.1-0.9c-1,0.4-1.9,1-2.9,1.1
				c-1.9,0.3-2.7,1-2.7,2.9c0.1,2.6,2.1,4.2,3.5,6c1-0.6,1.9-1.7,2.7-1.7c2.5,0.3,4-0.6,4.6-3c0-0.1,0.3-0.2,1-0.7
				c-0.5,1.4-0.8,2.3-1.1,3.4c0.7,0.1,1.3,0.1,2.3,0.2c-0.5-3.2-0.9-6.2-1.4-9.6c-2.2,0.5-4.1,0.9-6,1.3c0.1-0.3,0.2-0.6,0.3-0.9
				c-0.9-0.1-1.8-0.1-2.8-0.2C77.2,119.7,76.7,118.3,74.9,117.5c0.6-0.4,1.2-0.8,1.9-1.3c0-0.1-0.1-0.2-0.1-0.2
				c-0.6,0.1-1.2,0.2-1.8,0.4c-0.5-0.9-0.9-1.7-1.3-2.4c0.1,0,0.2-0.1,0.2-0.1c0.5,0.5,0.9,1,1.5,1.6c0.1-0.4,0.2-0.8,0.3-0.8
				c1.5-0.2,1.8-1,1.1-2.3c0-0.1,0.2-0.4,0.4-0.4c1.2-0.5,0.9-1.5,0.9-2.4c0-1.7,0-3.4,0-5.1c0-0.4-0.1-0.9-0.1-1.3
				c-0.3,0-0.5,0-0.8,0c-0.2,2.3-0.5,4.5-0.7,6.8c0.1,0,0.2,0,0.3,0c-0.3,0.7-0.6,1.4-1,2.2c-1.8,0.1-3.1,1-3,2.4
				C72.8,115.9,72.7,117.6,74.9,117.5z M69.7,105.6c1.4,0.1,2.9-0.1,3.7,1.5c0.1,0.1,0.5,0.1,0.7,0.1c-0.2,1.5-0.4,3-0.7,4.9
				c0.8-0.6,1.3-1,1.4-1.1c0-1.6,0-2.8,0-4.1c-0.3,0.1-0.6,0.2-0.8,0.3c0.1-0.4,0.2-1,0.4-1.1c2.1-1,1.2-3.4,2.8-4.8
				c-3.7,0-6.8,0-10.2,0c0.4,0.7,0.7,1.2,1.1,1.7c-0.4-0.1-0.7-0.1-1.2-0.3c0.3,2.2-0.7,4.6,1.8,5.8c0.7,0.3,1.8-0.3,3.3-0.6
				C70.9,106.9,70.3,106.3,69.7,105.6z M74,119.8c-1.1-0.1-2.1-0.2-3.4-0.4c-1-3.2-3.5-9.4-3.7-9.4c0,4,0,7.9,0,11.8
				c-1.1,0.2-1.9,0.3-2.6,0.4c-1.8-0.1-5.9,0.1-5.9,0.1l0.1,8.1l8.5-0.1l0.1,8.5l10.9-0.1c0,0,0-2.7,0-3.7c-3.2,0.9-6.3,1.8-9.5,2.7
				c1.9-1.3,2.4-3.3,2.6-5.4c0.1-1,0.2-2.1,0.4-3.1c0.4-2.2-0.5-3.2-2.6-4.1c-1.7-0.7-3.1-1.8-4.7-2.8c1.3,0.5,2.5,1.2,3.8,1.6
				C71.4,124.7,74.5,123.9,74,119.8c0.2,0.1,0.4,0.2,0.6,0.4c-0.1-0.9-0.5-1.7-1.1-2.2c-1.4-1.2-1.7-2.7-1.3-4.3
				c0.3-1.4,0.5-1.4-0.8-2.4c-2,2.7-1.4,5.5,1.3,7.2C73.2,118.6,73.6,119.3,74,119.8z M73.8,131.5l-1,0.1l-0.5,3.3l2-0.6L73.8,131.5
				z"/>
		</g>
		<path class="st1" d="M74,119.8c-0.5-0.5-0.8-1.1-1.4-1.5c-2.7-1.6-3.3-4.4-1.3-7.2c1.3,1,1.2,1,0.8,2.4c-0.4,1.6-0.1,3.1,1.3,4.3
			c0.6,0.5,1,1.3,1.1,2.2C74.4,120,74.2,119.9,74,119.8C74,119.7,74,119.8,74,119.8z"/>
		<path class="st1" d="M74,107.3c0.2-0.1,0.5-0.2,0.8-0.3c0,1.2,0,2.4,0,4.1c-0.1,0.1-0.6,0.5-1.4,1.1
			C73.7,110.2,73.9,108.7,74,107.3C74.1,107.2,74,107.3,74,107.3z"/>
	</g>
</g>
<g>
	<g>
		<polygon class="st17" points="144,0 96,1.4 97.4,48 144,46.6 		"/>
	</g>
	<path class="st3" d="M136.9,19.5l0.8-6.5h-4.5l1.2-5.4L127,8l-0.9,5h-7.2l1.3-6.3L113.4,7l-1.1,5.8h-6l-0.4,5.9l5.3,0.1l-2.1,11
		h-5.4l-1.5,6l5.7,0.1l-0.8,4.3l5.9,0.4l1-4.6l7.7,0.2l-0.9,4.6l6.4,0.4l1-4.8l5.8,0.1l0.9-6.9h-5.2l2.2-10.5L136.9,19.5z
		 M122.9,29.8h-7.6l2.3-10.8l7.3,0.2L122.9,29.8z"/>
</g>
<path d="M120.8,140.3c0,0-22-21-21.7-22.2c0.3-1.2,0.7-10,0.7-10l6.9-8.5l14.1,5.1l9.7-5l9.5,7.3l0.7,13.2L120.8,140.3z"/>
<polygon class="st1" points="126.9,107.8 123.7,108.1 123.3,117.5 117.1,108.3 116.9,123.2 127,123.2 "/>
<polygon class="st1" points="115.5,119.5 109.5,119.7 110.1,108.8 106,109 106.3,123.3 115.1,123.5 "/>
<path class="st1" d="M128.9,123.5l-0.6-15.8c0,0,9,0,9,8.2C137.3,124.1,128.9,123.5,128.9,123.5z"/>
</svg>
