<?xml version="1.0" encoding="utf-8"?>
<!-- Generator: Adobe Illustrator 22.1.0, SVG Export Plug-In . SVG Version: 6.00 Build 0)  -->
<!DOCTYPE svg PUBLIC "-//W3C//DTD SVG 1.1//EN" "http://www.w3.org/Graphics/SVG/1.1/DTD/svg11.dtd">
<svg version="1.1" id="Layer_1" xmlns="http://www.w3.org/2000/svg" xmlns:xlink="http://www.w3.org/1999/xlink" x="0px" y="0px"
	 viewBox="0 0 192 192" style="enable-background:new 0 0 192 192;" xml:space="preserve">
<style type="text/css">
	.st0{fill:#FA4B31;}
	.st1{fill:#FFFFFF;}
	.st2{fill:#FFF100;}
	.st3{fill:#231F20;}
	.st4{fill:#E6E7E8;}
	.st5{fill:#58595B;}
	.st6{fill:#BCBEC0;}
	.st7{fill:#EC1C24;}
	.st8{enable-background:new    ;}
	.st9{fill:#2F2F30;}
</style>
<g>
	<polygon class="st0" points="96,94.6 49.4,96 48,49.4 96,48 	"/>
	<polygon class="st1" points="61.4,56.5 53.4,60.6 53.6,62.3 58.7,61.4 59.6,83.4 56.4,83.7 56.4,87.5 65.7,86.6 65.7,83.4 
		63.1,82.9 63.4,65.5 69.8,64 74.1,71.6 74.7,86.1 77.6,86.1 77.8,66.4 81.3,65.5 85.7,72.4 85.7,81.1 81.6,81.1 81.9,85.2 92.9,84 
		91.5,81.1 88.3,80.8 88.3,66.6 81.3,61.7 75.4,64.6 68.3,60.6 61.9,61.4 	"/>
</g>
<g>
	<g>
		<polygon class="st2" points="144,0 96,1.4 97.4,48 144,46.6 		"/>
	</g>
	<path class="st3" d="M136.9,19.5l0.8-6.5h-4.5l1.2-5.4L127,8l-0.9,5h-7.2l1.3-6.3L113.4,7l-1.1,5.8h-6l-0.4,5.9l5.3,0.1l-2.1,11
		h-5.4l-1.5,6l5.7,0.1l-0.8,4.3l5.9,0.4l1-4.6l7.7,0.2l-0.9,4.6l6.4,0.4l1-4.8l5.8,0.1l0.9-6.9h-5.2l2.2-10.5L136.9,19.5z
		 M122.9,29.8h-7.6l2.3-10.8l7.3,0.2L122.9,29.8z"/>
</g>
<g>
	<g>
		<polygon class="st4" points="192,0 144,1.4 145.4,48 192,46.6 		"/>
	</g>
	<path class="st3" d="M175.5,40.6c0.1,1.9-1.4,3.5-3.4,3.6c-1.9,0.1-3.5-1.4-3.6-3.4c-0.1-1.9,1.4-3.5,3.4-3.6
		C173.8,37.2,175.4,38.7,175.5,40.6z"/>
	<path class="st3" d="M184.1,20.3c0.1,1.9-1.4,3.5-3.4,3.6c-1.9,0.1-3.5-1.4-3.6-3.4c-0.1-1.9,1.4-3.5,3.3-3.6
		C182.4,16.8,184,18.3,184.1,20.3z"/>
	<polygon class="st3" points="179.6,17.5 185.7,15.9 191.1,23.5 187.9,30.6 179.4,32.4 182.3,36.9 183.2,41.3 181.5,46.8 
		179.1,46.6 181.2,40 175.1,32.7 170.3,33.3 166.6,36.1 165.2,40 167.6,42.7 171,42.3 173.6,43.4 166.7,45.1 164,41.6 164,37.4 
		168.3,31.6 185.9,28.7 188.5,24.2 184.1,18 182,19 	"/>
	<polygon class="st3" points="161.8,34.1 158.7,36.9 153.7,35 149.9,39.1 151.9,48 147.1,48.1 146.3,40.1 149.6,33.8 154.4,32.6 
		152.9,25.1 158.4,18.7 166.5,17.4 169.1,19.9 170.1,24.8 166.9,26.5 166.8,19.6 159.4,20.2 155.4,25.5 157,32.2 	"/>
</g>
<g>
	<g>
		<polygon class="st5" points="48,48 0,49.4 1.4,96 48,94.6 		"/>
	</g>
	<circle class="st3" cx="24" cy="72" r="22.1"/>
	<polygon class="st1" points="35.7,64.8 29.4,76.8 41.8,76.6 	"/>
	<path class="st1" d="M17.3,77.4l-0.6-13.6c0,0-9,0.8-8.6,7.8C8.4,78.5,17.3,77.4,17.3,77.4z"/>
	<path class="st1" d="M19.3,64.5l0.6,14c0,0,10.3-0.7,9.8-8.5C29.2,62.3,19.3,64.5,19.3,64.5z"/>
	<polygon class="st1" points="19.3,64.5 19.5,84.1 23.8,84.1 23.9,64.5 	"/>
</g>
<g>
	<g>
		<polygon class="st1" points="48.3,1.6 95.8,0.3 95.8,46.4 49.6,47.7 		"/>
		<path class="st6" d="M95.5,0.5v45.6l-45.6,1.4L48.5,1.9L95.5,0.5 M96,0L48,1.4L49.4,48L96,46.6V0L96,0z"/>
	</g>
</g>
<g>
	<polygon class="st7" points="50.8,10.6 51,16.3 70.8,16.3 70.8,10.6 	"/>
	<polygon class="st7" points="57,10.6 57.5,37.4 63.8,37.4 64.2,10.6 	"/>
	<polygon class="st7" points="74.8,11.4 66.6,37.3 82.9,37.3 	"/>
	<polygon class="st7" points="85.2,11.4 75.6,37.3 93.2,37.3 	"/>
</g>
<text transform="matrix(1 0 0 1 -158.1729 -87.7495)" class="st8"><tspan x="0" y="0" style="font-family:'MyriadPro-Regular'; font-size:12px;">Love Nothing Day</tspan><tspan x="0" y="14.4" style="font-family:'MyriadPro-Regular'; font-size:12px;">The Kate Bush Dance</tspan><tspan x="0" y="28.8" style="font-family:'MyriadPro-Regular'; font-size:12px;">Is Mercury in Gatorade?</tspan><tspan x="0" y="43.2" style="font-family:'MyriadPro-Regular'; font-size:12px;">Yuk Hut</tspan><tspan x="0" y="57.6" style="font-family:'MyriadPro-Regular'; font-size:12px;">Chicago IRL</tspan><tspan x="0" y="72" style="font-family:'MyriadPro-Regular'; font-size:12px;">Is You Is?</tspan><tspan x="0" y="86.4" style="font-family:'MyriadPro-Regular'; font-size:12px;">Saatchi Art</tspan><tspan x="0" y="100.8" style="font-family:'MyriadPro-Regular'; font-size:12px;">Totes-Cute.com</tspan></text>
<g>
	<g>
		<polygon class="st1" points="96.3,49.6 143.8,48.3 143.8,94.4 97.6,95.7 		"/>
		<path class="st6" d="M143.5,48.5v45.6l-45.6,1.4l-1.4-45.6L143.5,48.5 M144,48l-48,1.4L97.4,96l46.6-1.4V48L144,48z"/>
	</g>
</g>
<g>
	<polygon class="st4" points="192,48 144,49.4 145.4,96 192,94.6 	"/>
</g>
<g>
	<polygon class="st4" points="144,96 96,97.4 97.4,144 144,142.6 	"/>
</g>
<g>
	<polygon class="st4" points="192,96 144,97.4 145.4,144 192,142.6 	"/>
</g>
<g>
	<polygon class="st4" points="48,96 0,97.4 1.4,144 48,142.6 	"/>
</g>
<g>
	<polygon class="st4" points="96,96 48,97.4 49.4,144 96,142.6 	"/>
</g>
<g>
	<polygon class="st4" points="144,144 96,145.4 97.4,192 144,190.6 	"/>
</g>
<g>
	<polygon class="st4" points="192,144 144,145.4 145.4,192 192,190.6 	"/>
</g>
<g>
	<polygon class="st4" points="48,144 0,145.4 1.4,192 48,190.6 	"/>
</g>
<g>
	<polygon class="st4" points="96,144 48,145.4 49.4,192 96,190.6 	"/>
</g>
<polygon class="st3" points="104.2,55.9 103.8,62.4 106.5,65.8 106.5,58.7 118.2,57.9 117.9,82.3 113.2,90.1 126.2,88.2 120.8,82.2 
	121.4,57.9 133.2,57.2 134.1,63.1 136.2,59.1 135.2,53.8 "/>
<g>
	<polygon class="st9" points="48,0 0,1.4 1.4,48 48,46.6 	"/>
</g>
<g>
	<polygon class="st1" points="22.3,14.3 26.6,15.7 31.5,11.3 36.6,12 36.1,17.5 28.6,24.9 24,26.2 21.3,24.1 19.1,26.9 23,30.3 
		31.1,28.7 40.7,18.8 40.9,8.6 29.5,7.6 	"/>
	<polygon class="st1" points="30.2,20.6 25.1,17.9 18.9,18.3 8.4,28 7.1,37.3 11.7,41.3 20.1,39.9 26.9,32.7 21.8,32.3 16.6,36.5 
		11.6,36 12,30.5 20.3,21.9 24,21.4 26.4,23.3 	"/>
</g>
</svg>
