<?xml version="1.0" encoding="utf-8"?>
<!-- Generator: Adobe Illustrator 22.1.0, SVG Export Plug-In . SVG Version: 6.00 Build 0)  -->
<svg version="1.1" id="Layer_1" xmlns="http://www.w3.org/2000/svg" xmlns:xlink="http://www.w3.org/1999/xlink" x="0px" y="0px"
	 viewBox="0 0 192 192" style="enable-background:new 0 0 192 192;" xml:space="preserve">
<style type="text/css">
	.st0{fill:#FA4B31;}
	.st1{fill:#FFFFFF;}
	.st2{fill:#FFF100;}
	.st3{fill:#231F20;}
	.st4{fill:#E6E7E8;}
	.st5{fill:#58595B;}
	.st6{fill:#EC1C24;}
</style>
<g>
	<polygon class="st0" points="48,46.6 1.4,48 0,1.4 48,0 	"/>
	<polygon class="st1" points="13.4,8.5 5.4,12.6 5.6,14.3 10.7,13.4 11.6,35.4 8.4,35.7 8.4,39.5 17.7,38.6 17.7,35.4 15.1,34.9 
		15.4,17.5 21.8,16 26.1,23.6 26.7,38.1 29.6,38.1 29.8,18.4 33.3,17.5 37.7,24.4 37.7,33.1 33.6,33.1 33.9,37.2 44.9,36 43.5,33.1 
		40.3,32.8 40.3,18.6 33.3,13.7 27.4,16.6 20.3,12.6 13.9,13.4 	"/>
</g>
<g>
	<g>
		<polygon class="st2" points="144,0 96,1.4 97.4,48 144,46.6 		"/>
	</g>
	<path class="st3" d="M136.9,19.5l0.8-6.5l-4.5,0l1.2-5.4L127,8l-0.9,5l-7.2,0l1.3-6.3L113.4,7l-1.1,5.8l-6,0l-0.4,5.9l5.3,0.1
		l-2.1,11h-5.4l-1.5,6l5.7,0.1l-0.8,4.3l5.9,0.4l1-4.6l7.7,0.2l-0.9,4.6l6.4,0.4l1-4.8l5.8,0.1l0.9-6.9h-5.2l2.2-10.5L136.9,19.5z
		 M122.9,29.8h-7.6l2.3-10.8l7.3,0.2L122.9,29.8z"/>
</g>
<g>
	<g>
		<polygon class="st4" points="192,0 144,1.4 145.4,48 192,46.6 		"/>
	</g>
	<path class="st3" d="M175.5,40.6c0.1,1.9-1.4,3.5-3.4,3.6c-1.9,0.1-3.5-1.4-3.6-3.4c-0.1-1.9,1.4-3.5,3.4-3.6
		C173.8,37.2,175.4,38.7,175.5,40.6z"/>
	<path class="st3" d="M184.1,20.3c0.1,1.9-1.4,3.5-3.4,3.6c-1.9,0.1-3.5-1.4-3.6-3.4c-0.1-1.9,1.4-3.5,3.3-3.6
		C182.4,16.8,184,18.3,184.1,20.3z"/>
	<polygon class="st3" points="179.6,17.5 185.7,15.9 191.1,23.5 187.9,30.6 179.4,32.4 182.3,36.9 183.2,41.3 181.5,46.8 
		179.1,46.6 181.2,40 175.1,32.7 170.3,33.3 166.6,36.1 165.2,40 167.6,42.7 171,42.3 173.6,43.4 166.7,45.1 164,41.6 164,37.4 
		168.3,31.6 185.9,28.7 188.5,24.2 184.1,18 182,19 	"/>
	<polygon class="st3" points="161.8,34.1 158.7,36.9 153.7,35 149.9,39.1 151.9,48 147.1,48.1 146.3,40.1 149.6,33.8 154.4,32.6 
		152.9,25.1 158.4,18.7 166.5,17.4 169.1,19.9 170.1,24.8 166.9,26.5 166.8,19.6 159.4,20.2 155.4,25.5 157,32.2 	"/>
</g>
<g>
	<g>
		<polygon class="st5" points="48,48 0,49.4 1.4,96 48,94.6 		"/>
	</g>
	<circle class="st3" cx="24" cy="72" r="22.1"/>
	<polygon class="st1" points="35.7,64.8 29.4,76.8 41.8,76.6 	"/>
	<path class="st1" d="M17.3,77.4l-0.6-13.6c0,0-9,0.8-8.6,7.8C8.4,78.5,17.3,77.4,17.3,77.4z"/>
	<path class="st1" d="M19.3,64.5l0.6,14c0,0,10.3-0.7,9.8-8.5C29.2,62.3,19.3,64.5,19.3,64.5z"/>
	<polygon class="st1" points="19.3,64.5 19.5,84.1 23.8,84.1 23.9,64.5 	"/>
</g>
<g>
	<g>
		<polygon class="st4" points="96,0 48,1.4 49.4,48 96,46.6 		"/>
	</g>
	<polygon class="st6" points="51.5,10.9 51.8,16.6 71.5,16.6 71.5,10.9 	"/>
	<polygon class="st6" points="57.7,10.9 58.3,37.7 64.6,37.7 64.9,10.9 	"/>
	<polygon class="st6" points="75.6,11.7 67.3,37.6 83.7,37.6 	"/>
	<polygon class="st6" points="85.9,11.7 76.3,37.6 94,37.6 	"/>
</g>
<rect x="35.6" y="-85.8" style="fill:none;" width="40.7" height="14.4"/>
<text transform="matrix(1 0 0 1 35.5771 -77.2495)" style="font-family:'MyriadPro-Regular'; font-size:12px;">yukhut</text>
<rect x="78" y="-85.8" style="fill:none;" width="52.1" height="12.9"/>
<text transform="matrix(1 0 0 1 78.0013 -77.2495)" style="font-family:'MyriadPro-Regular'; font-size:12px;">kate bush</text>
<rect x="131.8" y="-85.8" style="fill:none;" width="52.1" height="12.9"/>
<text transform="matrix(1 0 0 1 131.8378 -77.2495)" style="font-family:'MyriadPro-Regular'; font-size:12px;">tophr.org</text>
<rect x="184" y="-85.8" style="fill:none;" width="52.1" height="12.9"/>
<text transform="matrix(1 0 0 1 183.9698 -77.2495)" style="font-family:'MyriadPro-Regular'; font-size:12px;">isyouis</text>
</svg>
